<?xml version="1.0" encoding="utf-8"?>
<!-- Generator: Adobe Illustrator 19.0.0, SVG Export Plug-In . SVG Version: 6.00 Build 0)  -->
<svg version="1.1" baseProfile="basic" xmlns="http://www.w3.org/2000/svg" xmlns:xlink="http://www.w3.org/1999/xlink" x="0px"
	 y="0px" viewBox="0 0 64 64" xml:space="preserve">
<g id="Layer_1" display="none">
	<a id="XMLID_1419_" xlink:href="client" >
		<g display="inline">
			<g id="XMLID_1417_">
				<path id="XMLID_1603_" fill-rule="evenodd" clip-rule="evenodd" fill="#E6E7E8" d="M15.4,14C9.7,14,5,18.4,5,24.2V41h10.4h10.4
					H42V14H15.4z"/>
				<path id="XMLID_1600_" fill-rule="evenodd" clip-rule="evenodd" fill="#BBBDBF" d="M41.5,13.8c-5.7,0-10.5,4.7-10.5,10.4V41h21
					V24.2C52,18.4,47.2,13.8,41.5,13.8z"/>
				<g id="XMLID_1327_">
					<polygon id="XMLID_1601_" fill-rule="evenodd" clip-rule="evenodd" fill="#D0AC54" points="31,24 31,40 52.1,40 56.2,24 					
						"/>
					<polygon id="XMLID_1546_" fill-rule="evenodd" clip-rule="evenodd" fill="#FFFFFF" points="31,31 31,37 41.8,37 43.5,31 					
						"/>
					<polygon id="XMLID_1539_" fill-rule="evenodd" clip-rule="evenodd" fill="#B0101F" points="49.7,26 48.8,29 52.9,29 53.8,26 
											"/>
					<polygon id="XMLID_1599_" fill-rule="evenodd" clip-rule="evenodd" fill="#B0101F" points="45,26 44.1,29 48.1,29 49.1,26 
											"/>
				</g>
				<g id="XMLID_1415_">
					<g id="XMLID_1602_">
						<rect id="XMLID_1606_" x="18" y="6" fill-rule="evenodd" clip-rule="evenodd" fill="#B0101F" width="8" height="4"/>
						<rect id="XMLID_1605_" x="23" y="7" fill-rule="evenodd" clip-rule="evenodd" fill="#B0101F" width="3" height="20"/>
						<circle id="XMLID_1604_" fill-rule="evenodd" clip-rule="evenodd" fill="#B0101F" cx="24.7" cy="27.3" r="2.6"/>
					</g>
					<rect id="XMLID_1414_" x="23.2" y="28.8" fill-rule="evenodd" clip-rule="evenodd" fill="#B0101F" width="1.5" height="1.1"/>
					<g id="XMLID_1328_">
						<rect id="XMLID_1413_" x="16" y="6" fill-rule="evenodd" clip-rule="evenodd" fill="#ED2D2B" width="8" height="4"/>
						<rect id="XMLID_1412_" x="22" y="7" fill-rule="evenodd" clip-rule="evenodd" fill="#ED2D2B" width="2" height="20"/>
						<circle id="XMLID_1329_" fill-rule="evenodd" clip-rule="evenodd" fill="#ED2D2B" cx="23.2" cy="27.3" r="2.6"/>
					</g>
				</g>
				<rect id="XMLID_1416_" x="31" y="40" fill-rule="evenodd" clip-rule="evenodd" fill="#E6E7E8" width="30" height="1"/>
			</g>
			<rect id="XMLID_1418_" x="21" y="41" fill-rule="evenodd" clip-rule="evenodd" fill="#BBBDBF" width="6" height="15"/>
		</g>
	</a>
</g>
<g id="Layer_7" display="none">
	<g id="XMLID_279_" display="inline">
		<rect id="XMLID_286_" x="9.9" y="32" fill="#85A646" width="8" height="8.3"/>
		<rect id="XMLID_285_" x="20.6" y="45.7" fill="#85A646" width="8" height="8.3"/>
		<rect id="XMLID_283_" x="49.2" y="13.9" fill="#85A646" width="8" height="8.3"/>
		<polygon id="XMLID_281_" fill="#85A646" points="28.6,54 12.3,37.7 18,32 28.6,42.6 57.3,13.9 63,19.6 		"/>
		<polygon id="XMLID_280_" fill="#A3C66B" points="20.5,54 4.3,37.7 10,32 20.5,42.6 49.2,13.9 54.9,19.6 		"/>
	</g>
</g>
<g id="Layer_8" display="none">
	<g id="XMLID_287_" display="inline">
		<rect id="XMLID_301_" x="14.3" y="45.4" fill="#8A010E" width="7.5" height="6.1"/>
		<rect id="XMLID_297_" x="46.2" y="45.4" fill="#8A010E" width="7.5" height="6.1"/>
		<rect id="XMLID_296_" x="14.3" y="9" fill="#8A010E" width="7.5" height="6.1"/>
		<rect id="XMLID_294_" x="46.2" y="9" fill="#8A010E" width="7.5" height="6.1"/>
		<polygon id="XMLID_291_" fill="#8A010E" points="59,14.3 53.7,9 37.7,25 21.8,9 16.5,14.3 32.5,30.3 16.5,46.2 21.8,51.5 
			37.7,35.6 53.7,51.5 59,46.2 43,30.3 		"/>
		<polyline id="XMLID_290_" fill="#ED2D2B" points="35.6,30.3 51.5,14.3 46.2,9 30.3,25 14.3,9 9,14.3 25,30.3 9,46.2 14.3,51.5 
			30.3,35.6 46.2,51.5 51.5,46.2 35.6,30.3 		"/>
	</g>
</g>
<g id="Layer_9">
	<g id="XMLID_1856_">
		<circle id="XMLID_1857_" fill="#B0101F" cx="31.6" cy="31.7" r="22.7"/>
		<rect id="XMLID_4093_" x="28.1" y="9" fill="#B0101F" width="3.6" height="45.5"/>
		<circle id="XMLID_1858_" fill="#ED2D2B" cx="28.1" cy="31.7" r="22.7"/>
		<g id="XMLID_1859_">
			<g id="XMLID_1860_">
				<path id="XMLID_1861_" fill="#B0101F" d="M27.9,45.2V28.3h7.3v16.9H27.9z"/>
				<circle id="XMLID_1863_" fill="#B0101F" cx="31.6" cy="22" r="3.6"/>
			</g>
			<rect id="XMLID_4087_" x="28.1" y="18.3" fill="#B0101F" width="3.6" height="7.3"/>
			<g id="XMLID_1864_">
				<path id="XMLID_1865_" fill="#FFFFFF" d="M24.5,45.2V28.3h7.3v16.9H24.5z"/>
				<circle id="XMLID_1867_" fill="#FFFFFF" cx="28.1" cy="22" r="3.6"/>
			</g>
		</g>
	</g>
</g>
<g id="Layer_2" display="none">
	<g id="XMLID_1777_" display="inline">
		<path id="XMLID_3992_" fill="#BBBDBF" d="M52.4,52.1H14.8c-4.2,0-7.6-3.4-7.6-7.6v-19c0-4.2,3.4-7.6,7.6-7.6h37.6
			c4.2,0,7.6,3.4,7.6,7.6v19C60,48.7,56.6,52.1,52.4,52.1z"/>
		<path id="XMLID_3991_" fill="#E6E7E8" d="M49.6,52.1H12c-4.2,0-7.6-3.4-7.6-7.6v-19c0-4.2,3.4-7.6,7.6-7.6h37.6
			c4.2,0,7.6,3.4,7.6,7.6v19C57.2,48.7,53.8,52.1,49.6,52.1z"/>
		<g id="XMLID_1778_">
			<path id="XMLID_1779_" fill="#BBBDBF" d="M41.4,49c-1.7,0-3.1,1.4-3.1,3.1h6.2C44.5,50.4,43.1,49,41.4,49z"/>
			<path id="XMLID_1780_" fill="#BBBDBF" d="M20.3,49c-1.7,0-3.1,1.4-3.1,3.1h6.2C23.4,50.4,22,49,20.3,49z"/>
		</g>
		<path id="XMLID_3987_" fill="#FFFFFF" d="M24.1,42.9H11.6c-1.3,0-2.3-1-2.3-2.3V25c0-1.3,1-2.3,2.3-2.3h12.5c1.3,0,2.3,1,2.3,2.3
			v15.6C26.3,41.9,25.3,42.9,24.1,42.9z"/>
		
			<line id="XMLID_1781_" fill="none" stroke="#AB2428" stroke-width="0.7551" stroke-linecap="round" stroke-miterlimit="10" x1="31" y1="32.7" x2="51.8" y2="32.7"/>
		
			<line id="XMLID_1782_" fill="none" stroke="#AB2428" stroke-width="0.7551" stroke-linecap="round" stroke-miterlimit="10" x1="31" y1="27.8" x2="41.4" y2="27.8"/>
		
			<line id="XMLID_1783_" fill="none" stroke="#AB2428" stroke-width="0.7551" stroke-linecap="round" stroke-miterlimit="10" x1="31" y1="37.5" x2="51.8" y2="37.5"/>
		
			<line id="XMLID_1784_" fill="none" stroke="#AB2428" stroke-width="0.7551" stroke-linecap="round" stroke-miterlimit="10" x1="31" y1="42.3" x2="51.8" y2="42.3"/>
		<circle id="XMLID_1785_" fill="#BBBDBF" cx="17.8" cy="29.9" r="4.2"/>
		<path id="XMLID_1786_" fill="#BBBDBF" d="M20.1,35.5l-2.2,3.9l-2.2-3.9c-2.3,0.9-3.9,3.1-3.9,5.7v1.7h12.2v-1.7
			C23.9,38.6,22.3,36.4,20.1,35.5z"/>
	</g>
</g>
<g id="Layer_3" display="none">
	<g id="XMLID_1385_" display="inline">
		<g id="XMLID_515_">
			<rect id="XMLID_2695_" x="11.6" y="10.8" fill="#E6E7E8" width="32.6" height="46.5"/>
			<rect id="XMLID_2694_" x="44.2" y="10.8" fill="#BBBDBF" width="8" height="46.5"/>
			<g id="XMLID_516_">
				
					<line id="XMLID_2692_" fill="none" stroke="#AB2428" stroke-linecap="round" stroke-miterlimit="10" x1="43" y1="51.4" x2="54.1" y2="51.4"/>
				
					<line id="XMLID_2691_" fill="none" stroke="#AB2428" stroke-linecap="round" stroke-miterlimit="10" x1="16.7" y1="23" x2="39" y2="23"/>
				
					<line id="XMLID_1375_" fill="none" stroke="#AB2428" stroke-linecap="round" stroke-miterlimit="10" x1="16.7" y1="48.5" x2="27.9" y2="48.5"/>
				
					<line id="XMLID_1373_" fill="none" stroke="#AB2428" stroke-linecap="round" stroke-miterlimit="10" x1="16.7" y1="43.4" x2="39" y2="43.4"/>
				
					<line id="XMLID_2690_" fill="none" stroke="#AB2428" stroke-linecap="round" stroke-miterlimit="10" x1="16.7" y1="28.1" x2="39" y2="28.1"/>
				
					<line id="XMLID_2689_" fill="none" stroke="#AB2428" stroke-linecap="round" stroke-miterlimit="10" x1="16.7" y1="33.2" x2="39" y2="33.2"/>
				
					<line id="XMLID_2688_" fill="none" stroke="#AB2428" stroke-linecap="round" stroke-miterlimit="10" x1="16.7" y1="38.3" x2="39" y2="38.3"/>
			</g>
			<g id="XMLID_517_">
				<rect id="XMLID_2696_" x="52.2" y="10.8" fill="#ED2D2B" width="2.9" height="32.6"/>
				<rect id="XMLID_2698_" x="49.3" y="10.8" fill="#B0101F" width="2.9" height="32.6"/>
				<polygon id="XMLID_1374_" fill="#D0AC54" points="52.2,51.4 55.1,43.3 52.2,43.3 				"/>
				<polygon id="XMLID_1363_" fill="#AB8F45" points="52.2,51.4 49.3,43.3 52.2,43.3 				"/>
				<polygon id="XMLID_518_" fill="#5D0024" points="53.7,47.4 52.2,47.4 50.8,47.4 52.2,51.4 				"/>
			</g>
		</g>
		<rect id="XMLID_1446_" x="49.3" y="7.9" fill="#D0AC54" width="5.8" height="2.9"/>
		<path id="XMLID_2686_" fill="#ED2D2B" d="M52.2,5L52.2,5c-1.6,0-2.9,1.3-2.9,2.9v0h5.8v0C55.1,6.3,53.8,5,52.2,5z"/>
	</g>
</g>
<g id="Layer_4" display="none">
	<g id="XMLID_5656_" display="inline">
		<path id="XMLID_652_" fill="#E6E7E8" d="M51.5,7.4H17.3c-2.3,0-4.1,1.8-4.1,4.1v44.8h30.4c2.1,0,3.8-1.7,3.8-3.8v-41
			C47.4,9.2,49.3,7.4,51.5,7.4z"/>
		<g id="XMLID_648_">
			<path id="XMLID_276_" fill="#AB2428" d="M42,23.6H18.6c-0.4,0-0.7-0.3-0.7-0.7c0-0.4,0.3-0.7,0.7-0.7H42c0.4,0,0.7,0.3,0.7,0.7
				C42.7,23.3,42.4,23.6,42,23.6z"/>
			<path id="XMLID_275_" fill="#AB2428" d="M42,29H18.6c-0.4,0-0.7-0.3-0.7-0.7s0.3-0.7,0.7-0.7H42c0.4,0,0.7,0.3,0.7,0.7
				S42.4,29,42,29z"/>
			<path id="XMLID_274_" fill="#AB2428" d="M42,34.3H18.6c-0.4,0-0.7-0.3-0.7-0.7c0-0.4,0.3-0.7,0.7-0.7H42c0.4,0,0.7,0.3,0.7,0.7
				C42.7,34,42.4,34.3,42,34.3z"/>
		</g>
		<path id="XMLID_647_" fill="#E6E7E8" d="M17.1,52.4H9.2c0,2.2,1.8,4,4,4S17.1,54.5,17.1,52.4z"/>
		<path id="XMLID_646_" fill="#BBBDBF" d="M55.3,11.3c0-2.2-1.8-4-4-4c-2.2,0-4,1.8-4,4H55.3z"/>
		<path id="XMLID_6898_" fill="#BBBDBF" d="M39.5,52.4c0,2.2,1.8,4,4,4c2.2,0,4-1.8,4-4H39.5z"/>
		<path id="XMLID_563_" fill="#B0101F" d="M40.3,43.4c-1.2,0.2-2.2,0.7-2.5,0.8c0,0-0.1,0-0.1,0c-0.2-0.2-0.8-1.2-1.7-2
			c-0.1-0.1-0.3-0.1-0.4,0c-0.8,0.8-1.5,1.8-1.7,2c0,0-0.1,0-0.1,0c-0.3-0.1-1.3-0.6-2.5-0.8c-0.1,0-0.2,0.1-0.1,0.2
			c0.5,0.9,1,1.9,1.4,2.8c0,0,0.1,0.1,0.1,0.1c1.3-0.1,2.3-0.2,3.1-0.2c0.8,0,1.8,0,3.1,0.2c0.1,0,0.1,0,0.1-0.1
			c0.4-0.9,0.9-1.8,1.4-2.8C40.5,43.5,40.4,43.4,40.3,43.4"/>
	</g>
</g>
<g id="Layer_5" display="none">
	
		<image display="inline" overflow="visible" width="522" height="402" id="XMLID_277_" xlink:href="FD842CE1.png"  transform="matrix(0.24 0 0 0.24 -27 -27)">
	</image>
	
		<image display="inline" overflow="visible" width="522" height="402" id="XMLID_278_" xlink:href="FD842CE3.png"  transform="matrix(0.24 0 0 0.24 -27 -27)">
	</image>
</g>
<g id="Layer_6" display="none">
	<g id="XMLID_1703_" display="inline">
		<polygon id="XMLID_1716_" fill-rule="evenodd" clip-rule="evenodd" fill="#AB8F45" points="20.1,26.8 15.1,54 50.8,54 55.9,26.8 
					"/>
		<g id="XMLID_1706_">
			<polygon id="XMLID_1715_" fill="#E6E7E8" points="55.9,49.7 30.8,49.7 30.8,13.8 48.1,13.8 55.9,21.6 			"/>
			<g id="XMLID_1707_">
				
					<line id="XMLID_1714_" fill="none" stroke="#AB2428" stroke-width="0.7869" stroke-linecap="round" stroke-miterlimit="10" x1="34.8" y1="19.3" x2="43.3" y2="19.3"/>
				
					<line id="XMLID_1713_" fill="none" stroke="#AB2428" stroke-width="0.7869" stroke-linecap="round" stroke-miterlimit="10" x1="34.8" y1="23.3" x2="51.9" y2="23.3"/>
				
					<line id="XMLID_1712_" fill="none" stroke="#AB2428" stroke-width="0.7869" stroke-linecap="round" stroke-miterlimit="10" x1="34.8" y1="42.9" x2="43.3" y2="42.9"/>
				
					<line id="XMLID_1711_" fill="none" stroke="#AB2428" stroke-width="0.7869" stroke-linecap="round" stroke-miterlimit="10" x1="34.8" y1="39" x2="51.9" y2="39"/>
				
					<line id="XMLID_1710_" fill="none" stroke="#AB2428" stroke-width="0.7869" stroke-linecap="round" stroke-miterlimit="10" x1="34.8" y1="27.2" x2="51.9" y2="27.2"/>
				
					<line id="XMLID_1709_" fill="none" stroke="#AB2428" stroke-width="0.7869" stroke-linecap="round" stroke-miterlimit="10" x1="34.8" y1="31.1" x2="51.9" y2="31.1"/>
				
					<line id="XMLID_1708_" fill="none" stroke="#AB2428" stroke-width="0.7869" stroke-linecap="round" stroke-miterlimit="10" x1="34.8" y1="35.1" x2="51.9" y2="35.1"/>
			</g>
		</g>
		<polygon id="XMLID_1705_" fill-rule="evenodd" clip-rule="evenodd" fill="#D0AC54" points="21.1,30.6 20.3,26.8 4.9,26.8 11,54 
			50.8,54 45.6,30.6 		"/>
		<polygon id="XMLID_1704_" fill="#BBBDBF" points="48.1,21.6 55.9,21.6 48.1,13.8 		"/>
	</g>
</g>
</svg>
